<svg height="512" viewBox="0 0 60 60" width="512" xmlns="http://www.w3.org/2000/svg"><g id="Page-1" fill="none" fill-rule="evenodd"><g id="015---Veg-Stall" fill-rule="nonzero" transform="translate(0 -1)"><path id="Shape" d="m13 29v1c0 2.209139-1.790861 4-4 4h-3c-.33773721.0030533-.67426925-.0406959-1-.13-.69049806-.1805544-1.32151823-.539167-1.83-1.04-.74763915-.7523311-1.16810582-1.7693573-1.17-2.83-.0022266-.3398796.05183787-.6777826.16-1z" fill="#e8edfc"/><path id="Shape" d="m24 29v1c0 2.209139-1.790861 4-4 4h-3c-2.209139 0-4-1.790861-4-4v-1z" fill="#e8edfc"/><path id="Shape" d="m36 29v1c0 2.209139-1.790861 4-4 4h-4c-2.209139 0-4-1.790861-4-4v-1z" fill="#e8edfc"/><path id="Shape" d="m57.84 29h-55.68c.08292862-.2977983.21108837-.5810988.38-.84l4.99-7.84c.91170016-1.4451093 2.5013348-2.3211075 4.21-2.32h4.24c.4043965 1.2963497.9510592 2.543948 1.63 3.72 12.05 3.37 23.96-1.49 28.48-3.71.01 0 .01-.01.02-.01h2.15c1.7086652-.0011075 3.2982998.8748907 4.21 2.32l4.99 7.84c.1689116.2589012.2970714.5422017.38.84z" fill="#e8edfc"/><path id="Shape" d="m57.46 28.16-4.99-7.84c-.9117002-1.4451093-2.5013348-2.3211075-4.21-2.32h-2.15c-.01 0-.01.01-.02.01l-.1.049c1.4345032.2093553 2.7058052 1.0353363 3.48 2.261l4.99 7.84c.1689116.2589012.2970714.5422017.38.84h3c-.0829286-.2977983-.2110884-.5810988-.38-.84z" fill="#cad9fc"/><path id="Shape" d="m58 30c-.0018942 1.0606427-.4223608 2.0776689-1.17 2.83-.5084818.500833-1.1395019.8594456-1.83 1.04-.3257307.0893041-.6622628.1330533-1 .13h-3c-2.209139 0-4-1.790861-4-4v-1h10.84c.1081621.3222174.1622266.6601204.16 1z" fill="#e8edfc"/><path id="Shape" d="m57.84 29h-3c.1081621.3222174.1622266.6601204.16 1-.0018942 1.0606427-.4223608 2.0776689-1.17 2.83-.5084818.500833-1.1395019.8594456-1.83 1.04-.3257307.0893041-.6622628.1330533-1 .13h3c.3377372.0030533.6742693-.0406959 1-.13.6904981-.1805544 1.3215182-.539167 1.83-1.04.7476392-.7523311 1.1681058-1.7693573 1.17-2.83.0022266-.3398796-.0518379-.6777826-.16-1z" fill="#cad9fc"/><path id="Shape" d="m47 29v1c0 2.209139-1.790861 4-4 4h-3c-2.209139 0-4-1.790861-4-4v-1z" fill="#e8edfc"/><path id="Shape" d="m9 34v18h-4v-18.13c.32573075.0893041.66226279.1330533 1 .13z" fill="#a4c2f7"/><path id="Shape" d="m55 33.87v18.13h-4v-18h3c.3377372.0030533.6742693-.0406959 1-.13z" fill="#a4c2f7"/><rect id="Rectangle-path" fill="#e8edfc" height="4" rx="2" width="58" x="1" y="52"/><path id="Shape" d="m57 52h-3c1.1045695 0 2 .8954305 2 2s-.8954305 2-2 2h3c1.1045695 0 2-.8954305 2-2s-.8954305-2-2-2z" fill="#cad9fc"/><path id="Shape" d="m3 56h54v2c0 1.1045695-.8954305 2-2 2h-50c-1.1045695 0-2-.8954305-2-2z" fill="#a4c2f7"/><path id="Shape" d="m54 56v2c0 1.1045695-.8954305 2-2 2h3c1.1045695 0 2-.8954305 2-2v-2z" fill="#7facfa"/><path id="Shape" d="m46.11 18c-.01 0-.01.01-.02.01-4.52 2.22-16.43 7.08-28.48 3.71-.6789408-1.176052-1.2256035-2.4236503-1.63-3.72-1.9694888-5.4158868-1.0054667-11.46465298 2.55-16 0 0 19.45-.52 28.37 13.13.3039162.4786391.3914348 1.063413.240965 1.6100566s-.5249172 1.0042561-1.030965 1.2599434z" fill="#e8edfc"/><path id="Shape" d="m46.9 15.13c-8.92-13.65-28.37-13.13-28.37-13.13-.029.037-.053.075-.082.112 5.765.447 18.658 2.622 25.452 13.018.3039162.4786391.3914348 1.063413.240965 1.6100566s-.5249172 1.0042561-1.030965 1.2599434c-.01 0-.01.01-.02.01-5.7229278 2.8164729-11.9529883 4.455515-18.321 4.82 9.36.409 17.706-3.044 21.321-4.82.01 0 .01-.01.02-.01.5060478-.2556873.8804952-.7132998 1.030965-1.2599434s.0629512-1.1314175-.240965-1.6100566z" fill="#cad9fc"/><path id="Shape" d="m27 43c0 7-1 9-5 9s-5-2-5-9c.67917.020419 1.3522359.1348402 2 .34 1.3767325.33909 2.4985407 1.3337599 3 2.66.5014593-1.3262401 1.6232675-2.32091 3-2.66.6477641-.2051598 1.32083-.319581 2-.34z" fill="#e8edfc"/><path id="Shape" d="m25 41v2.34c-1.3767325.33909-2.4985407 1.3337599-3 2.66-.5014593-1.3262401-1.6232675-2.32091-3-2.66v-2.34c0-1.6568542 1.3431458-3 3-3s3 1.3431458 3 3z" fill="#a4c2f7"/><path id="Shape" d="m43 43c0 7-1 9-5 9s-5-2-5-9c.67917.020419 1.3522359.1348402 2 .34 1.3767325.33909 2.4985407 1.3337599 3 2.66.5014593-1.3262401 1.6232675-2.32091 3-2.66.6477641-.2051598 1.32083-.319581 2-.34z" fill="#e8edfc"/><path id="Shape" d="m41 41v2.34c-1.3767325.33909-2.4985407 1.3337599-3 2.66-.5014593-1.3262401-1.6232675-2.32091-3-2.66v-2.34c0-1.6568542 1.3431458-3 3-3s3 1.3431458 3 3z" fill="#a4c2f7"/><path id="Shape" d="m3 56v2c0 1.1045695.8954305 2 2 2h3c-1.1045695 0-2-.8954305-2-2v-2c-1.1045695 0-2-.8954305-2-2s.8954305-2 2-2h2v-18.13c-1.02958735-.2575169-1.91164687-.9197067-2.44628989-1.8365065s-.6766032-2.0105876-.39371011-3.0334935c.166-.6-.052-.161 5.37-8.68.9117002-1.4451093 2.5013348-2.3211075 4.21-2.320001l-3 .000001c-1.7086652-.0011075-3.29829984.8748907-4.21 2.32-5.422 8.519-5.204 8.08-5.37 8.68-.28289309 1.0229059-.14093291 2.1166937.39371011 3.0334935s1.41670254 1.5789896 2.44628989 1.8365065v18.13h-2c-1.1045695 0-2 .8954305-2 2s.8954305 2 2 2z" fill="#fff"/><path id="Rectangle-path" d="m4 44h2v8h-2z" fill="#fff"/><g fill="#428dff"><path id="Shape" d="m5.02 49c-.55228473.0027614-1.00223852-.4427153-1.00499994-.995-.00276143-.5522847.44271521-1.0022385.99499994-1.005h.01c.55228475 0 1 .4477153 1 1s-.44771525 1-1 1z"/><path id="Shape" d="m57 51h-1v-16.428c.5730969-.2497748 1.095691-.6022378 1.542-1.04.933889-.9382433 1.4581232-2.208199 1.458-3.532-.002641-.8427643-.2454618-1.6673144-.7-2.377l-4.988-7.835c-1.0987045-1.7296947-3.0028686-2.780528-5.052-2.788h-.152c.225811-.8223802.0889608-1.7020796-.376-2.417-9.118-13.958-28.404-13.604-29.232-13.583-.2966874.00821935-.5743939.14780534-.758.381-1.8217484 2.26636927-3.0251871 4.96609618-3.493 7.836-1.3099115-1.54191443-3.0546279-2.65266379-5.006-3.187-.53396655-.12972141-1.07256598.19570268-1.20609737.72872921-.13353139.53302654.18803803 1.07393623.72009737 1.21127079 1.4730856.41003722 2.797306 1.23476789 3.815 2.376-2.922-.506-7.482-.559-10.353 3.029-.34517796.4313344-.27533438 1.060822.15600001 1.406.43133438.345178 1.06082202.2753344 1.40599999-.156 2.04-2.55 5.37-2.7 7.81-2.388-.4669175.308513-.9023482.6622167-1.3 1.056-.2599566.2510745-.3642126.6228779-.2726972.9725073.0915155.3496295.3645604.6226744.7141899.7141899.3496294.0915154.7214328-.0127406.9725073-.2726972.6576622-.6808616 1.4665253-1.1971499 2.361-1.507.0849705 1.2828518.289185 2.5550075.61 3.8h-2.936c-2.04882082.0058883-3.95359766 1.0547592-5.054 2.783l-4.986 7.84c-.45520139.7093829-.69808042 1.5341307-.7 2.377-.00987436 1.9887085 1.1718638 3.7900714 3 4.573v9.427c0 .5522847.44771525 1 1 1s1-.4477153 1-1v-9h2v16h-5c-1.45943726-.0027654-2.70808095 1.0474881-2.95538732 2.485822-.24730638 1.4383339.57883984 2.8453257 1.95538732 3.330178v1.184c0 1.6568542 1.34314575 3 3 3h50c1.6568542 0 3-1.3431458 3-3v-1.184c1.3765475-.4848523 2.2026937-1.8918441 1.9553873-3.330178s-1.49595-2.4885874-2.9553873-2.485822zm-3 0h-2v-16h2zm2.128-18.882c-.5648207.5637895-1.3299525.8809165-2.128.882h-3c-1.6568542 0-3-1.3431458-3-3h9c-.0001949.7933272-.3135769 1.5545005-.872 2.118zm-21.128-2.118c0 1.6568542-1.3431458 3-3 3h-4c-1.6568542 0-3-1.3431458-3-3zm11 0c0 1.6568542-1.3431458 3-3 3h-3c-1.6568542 0-3-1.3431458-3-3zm-26.976-27c2.969.041 19.285.815 27.034 12.677.1551895.2362147.1993911.5284563.121.8-.0757638.2787905-.2677289.5115527-.527.639-4.4 2.161-15.813 6.812-27.379 3.752-.947-1.754-4.973-10.176.751-17.868zm-10.648 17.852c.73231611-1.1504176 2.0002789-1.8484756 3.364-1.852h3.548c.3891104 1.1257242.8822408 2.2127537 1.473 3.247.132114.2124459.3390601.3676554.58.435 2.9180557.8036547 5.93233 1.2043691 8.959 1.191 6.9543325-.1470136 13.7927895-1.8100439 20.038-4.873h1.922c1.3654064.0039314 2.6344861.7040743 3.366 1.857l4.547 7.143h-8.5l-1.748-4.372c-.1329028-.3318997-.4327764-.567685-.7866615-.6185376-.353885-.0508527-.7080178.0909529-.929.372s-.2752413.6586379-.1423385.9905376l1.456 3.628h-8.523v-1c0-.5522847-.4477153-1-1-1s-1 .4477153-1 1v1h-10v-1c0-.5522847-.4477153-1-1-1s-1 .4477153-1 1v1h-8.523l.624-1.56c.2051738-.5127964-.0442036-1.0948262-.557-1.3s-1.0948262.0442036-1.3.557l-.921 2.303h-8.5zm14.624 9.148c0 1.6568542-1.3431458 3-3 3h-3c-1.6568542 0-3-1.3431458-3-3zm-19.118 2.128c-.56378947-.5648207-.88091649-1.3299525-.882-2.128h9c0 1.6568542-1.3431458 3-3 3h-3c-.79332719-.0001949-1.55450049-.3135769-2.118-.872zm6.118 2.772c1.2034999-.2520679 2.2717013-.9392774 3-1.93.9360662 1.2725895 2.4202258 2.0258005 4 2.03h3c1.5799521-.0044337 3.0641457-.758033 4-2.031.9358543 1.272967 2.4200479 2.0265663 4 2.031h4c1.5799521-.0044337 3.0641457-.758033 4-2.031.9358543 1.272967 2.4200479 2.0265663 4 2.031h3c1.5799521-.0044337 3.0641457-.758033 4-2.031.7282987.9907226 1.7965001 1.6779321 3 1.93v16.101h-7.367c1.091-1.633 1.367-4.277 1.367-8 0-.5522847-.4477153-1-1-1-.3348934.0067997-.6689639.0358638-1 .087v-1.087c0-2.209139-1.790861-4-4-4s-4 1.790861-4 4v1.087c-.3310361-.0511362-.6651066-.0802003-1-.087-.5522847 0-1 .4477153-1 1 0 3.723.276 6.367 1.367 8h-6.734c1.091-1.633 1.367-4.277 1.367-8 0-.5522847-.4477153-1-1-1-.3348934.0067997-.6689639.0358638-1 .087v-1.087c0-2.209139-1.790861-4-4-4s-4 1.790861-4 4v1.087c-.3310361-.0511362-.6651066-.0802003-1-.087-.5522847 0-1 .4477153-1 1 0 3.723.276 6.367 1.367 8h-7.367zm30 7.739c-.7620029.3092837-1.4453041.7848613-2 1.392-.5546959-.6071387-1.2379971-1.0827163-2-1.392v-1.639c0-1.1045695.8954305-2 2-2s2 .8954305 2 2zm-5.99 1.474c.186.036.391.087.6.148h.005c1.1034647.2361171 2.0168647 1.0062828 2.436 2.054.1348836.4103745.5180268.6877501.95.6877501s.8151164-.2773756.95-.6877501c.5456726-1.2257112 1.7060992-2.0652174 3.041-2.2-.121 6.237-1.303 6.885-3.992 6.885s-3.872-.647-3.99-6.888zm-10.01-1.475c-.7620029.3092837-1.4453041.7848613-2 1.392-.5546959-.6071387-1.2379971-1.0827163-2-1.392v-1.638c0-1.1045695.8954305-2 2-2s2 .8954305 2 2zm-5.99 1.474c.186.036.391.087.6.148 1.1034647.2361171 2.0168647 1.0062828 2.436 2.054.1348836.4103745.5180268.6877501.95.6877501s.8151164-.2773756.95-.6877501c.5456726-1.2257112 1.7060992-2.0652174 3.041-2.2-.116 6.238-1.298 6.886-3.987 6.886s-3.872-.647-3.99-6.888zm37.99 13.888c0 .5522847-.4477153 1-1 1h-50c-.55228475 0-1-.4477153-1-1v-1h52zm1-3h-54c-.55228475 0-1-.4477153-1-1s.44771525-1 1-1h54c.5522847 0 1 .4477153 1 1s-.4477153 1-1 1z"/><path id="Shape" d="m23 18c.067187.0004396.1342304-.0062648.2-.02.2599387-.0529946.4881678-.2071045.6344551-.428411.1462874-.2213065.1986434-.4916715.1455449-.751589-.5332635-2.8141041-.2128737-5.7233824.92-8.354.2465951-.49429485.0457948-1.09490483-.4485-1.34149996-.4942949-.24659514-1.0949048-.04579487-1.3415.44849996-1.3446447 3.0276323-1.725194 6.3956687-1.09 9.647.0950537.4656663.5047314.800097.98.8z"/><path id="Shape" d="m29 17c.5522847 0 1-.4477153 1-1-.0785411-1.894116.2276217-3.7845013.9-5.557.2408413-.49379435.0382182-1.08940974-.4537806-1.33389824s-1.0890971-.04627801-1.3372194.44389824c-.8254491 2.0452508-1.2035853 4.2434867-1.109 6.447 0 .2652165.1053568.5195704.2928932.7071068s.4418903.2928932.7071068.2928932z"/><path id="Shape" d="m35 17c.5522847 0 1-.4477153 1-1 .0633898-1.2323211.3692267-2.4400372.9-3.554.2465951-.4942949.0457949-1.0949049-.4485-1.3415s-1.0949049-.0457949-1.3415.4485c-.6686472 1.3913948-1.0463514 2.9045936-1.11 4.447 0 .2652165.1053568.5195704.2928932.7071068s.4418903.2928932.7071068.2928932z"/></g></g></g></svg>